<?xml version="1.0" encoding="iso-8859-1"?>
<!-- Generator: Adobe Illustrator 16.0.0, SVG Export Plug-In . SVG Version: 6.00 Build 0)  -->
<!DOCTYPE svg PUBLIC "-//W3C//DTD SVG 1.1//EN" "http://www.w3.org/Graphics/SVG/1.1/DTD/svg11.dtd">
<svg version="1.1" id="Layer_1" xmlns="http://www.w3.org/2000/svg" xmlns:xlink="http://www.w3.org/1999/xlink" x="0px" y="0px"
	 width="700px" height="250px" viewBox="0 0 700 250" style="enable-background:new 0 0 700 250;" xml:space="preserve">
<g>
	<g>
		<path style="fill:#FFFFFF;" d="M267.806,86.217l-23.535,43.408L219.86,86.217v42.189h-13.455v-63.02h21.168l19.59,33.011
			l18.845-33.011h20.818v63.02h-19.021V86.217z"/>
		<path style="fill:#FFFFFF;" d="M297.782,65.387h56.93v7.856h-37.909V91.63h31.598v7.824h-31.598v21.095h38.435v7.857h-57.456
			V65.387z"/>
		<path style="fill:#FFFFFF;" d="M399.415,65.387c10.752,0,18.378,2.762,22.878,8.286c4.498,5.524,6.749,13.226,6.749,23.108
			c0,7.109-1.001,12.989-3.002,17.645c-2.002,4.655-5.216,8.146-9.644,10.48c-4.426,2.332-10.203,3.501-17.333,3.501h-36.638v-63.02
			H399.415z M413.57,96.78c-0.059-4.973-0.57-9.145-1.532-12.511c-0.965-3.367-2.894-6.046-5.787-8.038
			c-2.891-1.992-7.084-2.988-12.576-2.988h-12.229v47.306h13.674c7.217,0,12.096-1.98,14.637-5.943
			C412.299,110.645,413.57,104.703,413.57,96.78z"/>
		<path style="fill:#FFFFFF;" d="M452.357,113.384l-6.837,15.022h-13.104l28.926-63.02h21.344l29.45,63.02h-19.021l-7.363-15.022
			H452.357z M481.808,104.209l-12.753-26.905l-12.228,26.905H481.808z"/>
		<path style="fill:#FFFFFF;" d="M536.327,65.387v63.02h-19.02v-63.02H536.327z"/>
		<path style="fill:#FFFFFF;" d="M583.922,65.387c10.752,0,18.379,2.762,22.879,8.286c4.497,5.524,6.748,13.226,6.748,23.108
			c0,7.109-1.001,12.989-3.003,17.645c-1.999,4.655-5.214,8.146-9.641,10.48c-4.427,2.332-10.204,3.501-17.334,3.501h-36.64v-63.02
			H583.922z M598.078,96.78c-0.06-4.973-0.568-9.145-1.534-12.511c-0.963-3.367-2.892-6.046-5.784-8.038
			c-2.893-1.992-7.085-2.988-12.578-2.988h-12.227v47.306h13.673c7.216,0,12.097-1.98,14.638-5.943
			C596.809,110.645,598.078,104.703,598.078,96.78z"/>
	</g>
	<g>
		<path style="fill:#FFFFFF;" d="M285.579,150.618c0,3.043-0.733,5.385-2.198,7.023c-1.466,1.639-3.358,2.724-5.676,3.255
			c-2.318,0.531-5.067,0.796-8.245,0.796h-9.142v15.274h-10.095v-37.095h20.398c4.668,0,8.305,0.784,10.909,2.351
			C284.137,143.79,285.485,146.588,285.579,150.618z M276.042,150.385c-0.046-1.88-0.67-3.33-1.872-4.353
			c-1.202-1.024-2.771-1.535-4.71-1.535h-9.142v12.648h8.862c2.264,0,3.974-0.484,5.129-1.458
			C275.464,154.718,276.042,152.949,276.042,150.385z"/>
		<path style="fill:#FFFFFF;" d="M314.048,159.925h-14.956v17.042h-10.095v-37.095h10.095v15.447h14.956v-15.447h10.001v37.095
			h-10.001V159.925z"/>
		<path style="fill:#FFFFFF;" d="M337.401,168.125l-3.628,8.842h-6.955l15.351-37.095h11.327l15.631,37.095h-10.095l-3.907-8.842
			H337.401z M353.031,162.723l-6.768-15.836l-6.49,15.836H353.031z"/>
		<path style="fill:#FFFFFF;" d="M394.456,160.488l12.677,16.479h-11.724l-13.629-20.054h5.443c0.139,0,0.488,0.012,1.046,0.038
			c0.559,0.026,1.031,0.039,1.419,0.039c5.318,0,8.048-1.936,8.188-5.809c0-2.048-0.629-3.674-1.885-4.878
			c-1.255-1.205-2.916-1.807-4.977-1.807h-9.049v32.47h-10.095v-37.095h20.399c9.908,0,14.862,3.583,14.862,10.746
			c-0.139,2.927-1.147,5.116-3.022,6.567c-1.877,1.451-3.955,2.396-6.234,2.837c-1.736,0.35-2.814,0.524-3.232,0.524
			C394.519,160.547,394.456,160.527,394.456,160.488z"/>
		<path style="fill:#FFFFFF;" d="M443.512,152.133l-12.491,25.552l-12.955-25.552v24.834h-7.141v-37.095h11.233l10.398,19.431
			l10-19.431h11.05v37.095h-10.095V152.133z"/>
		<path style="fill:#FFFFFF;" d="M467.049,168.125l-3.628,8.842h-6.954l15.352-37.095h11.326l15.631,37.095h-10.094l-3.908-8.842
			H467.049z M482.681,162.723l-6.77-15.836l-6.488,15.836H482.681z"/>
		<path style="fill:#FFFFFF;" d="M532.2,174.906c0,0.26-1.144,0.702-3.431,1.33c-2.288,0.63-5.082,0.976-8.387,1.04
			c-7.691,0-13.059-1.628-16.106-4.888c-3.047-3.256-4.57-8.338-4.57-15.243c0.154-3.717,0.842-6.847,2.059-9.385
			c1.217-2.539,3.214-4.515,5.989-5.926c2.776-1.413,6.513-2.145,11.212-2.196c2.807,0,5.329,0.178,7.57,0.534
			c2.24,0.355,3.842,0.657,4.804,0.904l1.907,6.276c-0.822-0.48-2.296-1.076-4.419-1.788c-2.126-0.713-4.684-1.068-7.677-1.068
			c-4.125,0-6.889,1.203-8.292,3.613c-1.403,2.409-2.105,5.421-2.105,9.035c0,2.786,0.19,5.24,0.57,7.365
			c0.38,2.124,1.217,3.944,2.513,5.459c1.294,1.517,3.189,2.34,5.687,2.469c2.931,0,5.373-0.23,7.327-0.689
			c1.953-0.461,3.458-0.982,4.513-1.565c0.962-0.517,1.442-0.802,1.442-0.854h-0.024L532.2,174.906z"/>
		<path style="fill:#FFFFFF;" d="M533.921,139.872h11.352l10.28,14.243l10.095-14.243h6.676l-14.096,19.023v18.071h-10.094v-18.071
			L533.921,139.872z"/>
	</g>
</g>
<g>
	<path style="fill-rule:evenodd;clip-rule:evenodd;fill:#CCAB5C;" d="M193.743,132.665c-15.791,32.948-36.035,45.761-67.776,44.362
		c-14.34-0.632-27.626-3.717-38.684-13.899c-10.23-9.422-17.944-20.341-23.399-32.771
		C106.887,154.44,149.93,153.906,193.743,132.665z"/>
	<path style="fill-rule:evenodd;clip-rule:evenodd;fill:#CCAB5C;" d="M137.225,134.307c10.632-12.691,20.568-24.521,30.455-36.392
		c1.166-1.398,2.768-1.402,4.266-1.861c4.136-1.268,5.338-3.856,3.375-7.638c-1.955-3.764-4.93-6.661-8.66-8.658
		c-4.029-2.159-6.955-1.066-7.939,3.37c-0.61,2.751-2.076,4.459-4.029,6.144c-12.783,11.027-25.533,22.092-39.134,33.872
		c3.192-13.098,8.868-23.695,17.16-32.884c15.719-17.42,35.425-26.014,58.9-25.985c5.987,0.008,6.214,0.398,5.316,6.197
		c-4.111,26.54-19.787,44.476-42.69,56.985C149.233,130.193,143.983,132.452,137.225,134.307z"/>
	<path style="fill-rule:evenodd;clip-rule:evenodd;fill:#CCAB5C;" d="M64.663,125.694c14.443-5.251,29.271-7.94,44.383-9.316
		c0.779-0.071,1.739-0.273,1.683,0.926c-0.052,1.115-0.895,1.46-1.957,1.643c-5.179,0.895-10.355,1.819-15.511,2.837
		c-3.141,0.621-6.122,1.767-8.851,3.454c-4.187,2.586-4.247,5.315-0.029,7.871c5.424,3.287,11.583,4.462,17.732,5.342
		c19.725,2.824,39.419,2.827,58.979-1.384c2.935-0.633,5.799-1.697,8.595-2.813c2.358-0.942,4.966-2.082,5.289-4.98
		c0.328-2.936-2.65-3.603-4.483-5.1c1.281-2.3,3.101-3.039,5.543-2.319c6.054,1.782,12.145,3.455,17.977,6.137
		C167.424,150.896,88.675,150.172,64.663,125.694z"/>
	<path style="fill-rule:evenodd;clip-rule:evenodd;fill:#CCAB5C;" d="M121.442,94.979c-0.021,6.231-0.669,6.616-6.309,3.753
		c-10.97-5.572-16.922-17.775-14.898-29.757c0.601-3.553,1.955-3.646,4.743-2.465C114.556,70.566,121.481,82.439,121.442,94.979z"/>
	<path style="fill-rule:evenodd;clip-rule:evenodd;fill:#CCAB5C;" d="M99.017,112.653c-7.785-0.236-14.752-3.161-20.324-9.218
		c-1.386-1.506-1.892-2.606,0.245-4.118c9.357-6.617,29.902-3.417,36.897,5.737c1.571,2.055-0.084,2.457-1.131,3.139
		C110.063,111.216,104.917,112.622,99.017,112.653z"/>
	<path style="fill-rule:evenodd;clip-rule:evenodd;fill:#CCAB5C;" d="M94.233,90.079c-6.442-0.122-12.977-4.882-14.73-10.516
		c-0.747-2.397-0.224-3.577,2.537-3.518c5.893,0.125,13.395,5.709,15.249,11.418C98.519,91.259,95.487,89.645,94.233,90.079z"/>
</g>
</svg>
